<svg width="135" height="52" viewBox="0 0 135 52" fill="none" xmlns="http://www.w3.org/2000/svg">
<rect width="135" height="52" rx="8" fill="white"/>
<path d="M106.23 21.3583C106.072 21.5267 105.991 21.7299 105.991 21.9676C105.991 22.2054 106.072 22.4109 106.23 22.5842C106.39 22.7577 106.587 22.8443 106.82 22.8443C107.046 22.8443 107.238 22.7577 107.397 22.5842C107.556 22.4109 107.636 22.2054 107.636 21.9676C107.636 21.7299 107.556 21.5267 107.397 21.3583C107.238 21.1899 107.046 21.1058 106.82 21.1058C106.587 21.1058 106.39 21.1899 106.23 21.3583Z" fill="#0C0C0C"/>
<path fill-rule="evenodd" clip-rule="evenodd" d="M104.135 28.9664H104.04C103.767 28.9664 103.508 28.9391 103.26 28.8847C103.012 28.8302 102.788 28.7188 102.592 28.5504C102.32 28.8277 101.978 28.9664 101.566 28.9664H95.9172C95.4032 28.9664 95.0191 28.8079 94.7662 28.4909C94.5121 28.1739 94.3868 27.7232 94.3868 27.1387V25.4298H95.4547V26.9604C95.4547 27.2774 95.5167 27.4978 95.6444 27.6216C95.7697 27.7454 95.9734 27.8073 96.2544 27.8073H101.341C101.631 27.8073 101.819 27.738 101.903 27.5994C101.988 27.4607 102.029 27.2489 102.029 26.9604V25.4298H103.125V27.0198C103.125 27.3269 103.221 27.5349 103.415 27.6439C103.607 27.7529 103.814 27.8073 104.04 27.8073L107.074 27.8074C107.412 27.8074 107.629 27.7357 107.728 27.592C107.826 27.4484 107.871 27.2775 107.861 27.0794L106.484 27.0348C106.006 27.015 105.66 26.8466 105.444 26.5296C105.229 26.2125 105.121 25.8064 105.121 25.311C105.121 25.0436 105.165 24.7972 105.254 24.5681C105.344 24.3403 105.468 24.1421 105.627 23.9737C105.786 23.8053 105.976 23.674 106.196 23.5799C106.416 23.4858 106.662 23.4388 106.934 23.4388C107.251 23.4388 107.533 23.5093 107.777 23.6468C108.02 23.7854 108.224 23.9662 108.388 24.1892C108.552 24.412 108.675 24.6647 108.76 24.947C108.845 25.2294 108.887 25.5191 108.887 25.8163V26.6633C108.887 26.9704 108.854 27.2626 108.789 27.54C108.722 27.8186 108.621 28.0626 108.486 28.2756C108.351 28.4898 108.179 28.657 107.974 28.7808C107.768 28.9046 107.524 28.9665 107.243 28.9665H104.152L104.135 28.9664ZM107.784 25.4522C107.835 25.6156 107.861 25.7778 107.861 25.9351L106.709 25.8905C106.559 25.8819 106.407 25.8434 106.252 25.7791C106.098 25.7147 106.02 25.5785 106.02 25.3704C106.02 25.1525 106.079 24.9692 106.196 24.8206C106.313 24.6721 106.52 24.5977 106.82 24.5977C106.981 24.5977 107.123 24.6373 107.25 24.7166C107.376 24.7971 107.484 24.8974 107.573 25.0212C107.662 25.1451 107.732 25.2887 107.784 25.4522Z" fill="#0C0C0C"/>
<path d="M90.5919 28.9661H89.5662V21.7295H90.5919V28.9661Z" fill="#0C0C0C"/>
<path d="M86.7705 22.7404C86.6101 22.9089 86.5316 23.1119 86.5316 23.3496C86.5316 23.5874 86.6101 23.7929 86.7705 23.9663C86.9298 24.1397 87.1265 24.2264 87.3607 24.2264C87.5855 24.2264 87.7763 24.1397 87.9368 23.9663C88.096 23.7929 88.1756 23.5874 88.1756 23.3496C88.1756 23.1119 88.096 22.9089 87.9368 22.7404C87.7763 22.572 87.5855 22.4878 87.3607 22.4878C87.1265 22.4878 86.9298 22.572 86.7705 22.7404Z" fill="#0C0C0C"/>
<path d="M86.2717 30.2297C85.9485 30.517 85.4591 30.6606 84.8034 30.6606H84.1289L84.3256 31.8197L85.1968 31.8346C85.609 31.8433 85.9813 31.7702 86.3127 31.6117C86.6464 31.4532 86.9274 31.2352 87.1569 30.9579C87.3853 30.6805 87.5644 30.3535 87.6909 29.9772C87.8174 29.6007 87.8806 29.1945 87.8806 28.7586V25.43H86.7565V29.0409C86.7565 29.5461 86.5949 29.9424 86.2717 30.2297Z" fill="#0C0C0C"/>
<path d="M98.8539 23.7655C98.8539 23.5575 98.923 23.3791 99.0588 23.2306C99.1935 23.082 99.3609 23.0077 99.5577 23.0077C99.7544 23.0077 99.9195 23.082 100.055 23.2306C100.192 23.3791 100.259 23.5575 100.259 23.7655C100.259 23.9637 100.192 24.1345 100.055 24.2781C99.9195 24.4219 99.7544 24.4936 99.5577 24.4936C99.3609 24.4936 99.1935 24.4219 99.0588 24.2781C98.923 24.1345 98.8539 23.9637 98.8539 23.7655Z" fill="#0C0C0C"/>
<path d="M96.9429 23.7655C96.9429 23.5575 97.012 23.3791 97.1467 23.2306C97.2825 23.082 97.4546 23.0077 97.6595 23.0077C97.8481 23.0077 98.0085 23.082 98.1455 23.2306C98.2813 23.3791 98.348 23.5575 98.348 23.7655C98.348 23.9637 98.2813 24.1345 98.1455 24.2781C98.0085 24.4219 97.8481 24.4936 97.6595 24.4936C97.4546 24.4936 97.2825 24.4219 97.1467 24.2781C97.012 24.1345 96.9429 23.9637 96.9429 23.7655Z" fill="#0C0C0C"/>
<path d="M112.344 28.9666C111.799 28.9666 111.369 28.8205 111.051 28.5283C110.732 28.2361 110.572 27.7618 110.572 27.1092V21.73H111.64V26.916C111.64 27.2912 111.714 27.5352 111.859 27.6442C112.004 27.7531 112.203 27.8063 112.456 27.8063L114.128 27.8068C114.305 27.8068 114.449 27.7858 114.556 27.74C114.664 27.6954 114.746 27.636 114.802 27.563C114.858 27.4874 114.894 27.3983 114.908 27.2942C114.922 27.1902 114.929 27.0788 114.929 26.9611V25.4306H116.025V27.1382C116.025 27.6929 115.896 28.1375 115.638 28.4681C115.38 28.8012 114.985 28.9671 114.45 28.9671H112.709C112.697 28.9671 112.686 28.967 112.675 28.9666H112.344Z" fill="#0C0C0C"/>
<path d="M114.092 30.401C113.956 30.5435 113.888 30.7156 113.888 30.9125C113.888 31.1217 113.956 31.2988 114.092 31.4486C114.228 31.5973 114.399 31.6702 114.605 31.6702C114.791 31.6702 114.954 31.5973 115.09 31.4486C115.226 31.2988 115.294 31.1217 115.294 30.9125C115.294 30.7156 115.226 30.5435 115.09 30.401C114.954 30.2574 114.791 30.1843 114.605 30.1843C114.399 30.1843 114.228 30.2574 114.092 30.401Z" fill="#0C0C0C"/>
<path d="M112.294 30.401C112.158 30.5435 112.09 30.7156 112.09 30.9125C112.09 31.1217 112.158 31.2988 112.294 31.4486C112.429 31.5973 112.596 31.6702 112.791 31.6702C112.989 31.6702 113.155 31.5973 113.291 31.4486C113.426 31.2988 113.495 31.1217 113.495 30.9125C113.495 30.7156 113.426 30.5435 113.291 30.401C113.155 30.2574 112.989 30.1843 112.791 30.1843C112.596 30.1843 112.429 30.2574 112.294 30.401Z" fill="#0C0C0C"/>
<path d="M117.928 30.2291C118.25 29.9431 118.413 29.5456 118.413 29.0404V25.4308H119.537V28.7592C119.537 29.1939 119.473 29.6001 119.348 29.9765C119.221 30.3542 119.042 30.6799 118.814 30.9573C118.584 31.2346 118.302 31.4501 117.969 31.6036C117.638 31.7572 117.266 31.8339 116.853 31.8339L116.376 31.8191L116.193 30.6613H116.46C117.116 30.6613 117.605 30.5164 117.928 30.2291Z" fill="#0C0C0C"/>
<path d="M120.943 27.8225L121.082 28.9667H124.414C124.937 28.9667 125.334 28.823 125.6 28.5346C125.867 28.2485 126 27.9068 126 27.5105C126 27.2912 125.956 27.0696 125.867 26.8418C125.779 26.6139 125.644 26.4009 125.466 26.2028L123.077 23.5132L122.362 24.2859L124.765 26.9755C124.885 27.1142 124.947 27.2578 124.947 27.4064C124.947 27.5154 124.905 27.612 124.82 27.6962C124.736 27.7804 124.61 27.8225 124.44 27.8225H120.943Z" fill="#0C0C0C"/>
<path fill-rule="evenodd" clip-rule="evenodd" d="M27.8148 20.0513C30 20.22 34.4963 20.8612 35 22.0761C34.7531 24.74 33.8667 30.7329 32.2963 33.3943C30.3333 36.721 27.1111 39.65 22 39.65C16.8889 39.65 13.6667 36.721 11.7037 33.3943C10.1333 30.7329 9.24691 24.74 9 22.0761C9.5037 20.8612 14 20.22 16.1852 20.0513C16.3951 19.4486 17.0889 17.7225 18.1852 15.6397C19.2815 13.5569 20.7037 13 22 13C23.2963 13 24.7185 13.5569 25.8148 15.6397C26.9111 17.7225 27.6049 19.4486 27.8148 20.0513ZM22 15.2781C22.7778 15.2781 23.6296 16.3629 23.963 16.9776C24.2296 17.4694 24.9259 19.0869 25.2222 19.8343H18.7778C19.0741 19.0869 19.7704 17.4694 20.037 16.9776C20.3704 16.3629 21.2222 15.2781 22 15.2781Z" fill="url(#paint0_linear_8_48)"/>
<path d="M54.0494 27.3759C54.0494 28.614 55.0297 29.6189 56.2377 29.6189C57.4483 29.6189 58.4286 28.614 58.4259 27.3759V16.268C58.4259 15.0298 57.4456 14.025 56.2377 14.025C55.0297 14.025 54.0494 15.0298 54.0494 16.268V27.3759Z" fill="black"/>
<path d="M71.4833 27.417H75.8331C77.0304 27.417 78.0027 28.4108 78 29.6408C78 30.868 77.0277 31.8646 75.8304 31.8646H70.3905C68.5853 31.8646 67.1229 30.3656 67.1229 28.5152V18.4835C67.1229 17.2481 68.1005 16.2487 69.3031 16.2487C70.5084 16.2487 71.4833 17.2509 71.4833 18.4835V27.417Z" fill="black"/>
<path d="M47.53 20.6798C47.53 19.4444 48.5077 18.4451 49.7103 18.4451C50.9129 18.4451 51.8905 19.4444 51.8879 20.6798V28.5152C51.8879 30.3656 50.4254 31.8646 48.6202 31.8646H43.1695C41.9723 31.8646 41 30.868 41 29.6409C41 28.4136 41.9723 27.417 43.1695 27.417H47.53V20.6798Z" fill="black"/>
<path d="M62.7729 22.8954C61.5703 22.8954 60.5927 23.8947 60.5927 25.1301V31.8674H56.2322C55.0349 31.8674 54.0627 32.864 54.0627 34.0911C54.0627 35.3183 55.0349 36.3149 56.2322 36.3149H61.6828C63.4881 36.3149 64.9505 34.8159 64.9505 32.9655V25.1301C64.9505 23.8947 63.9756 22.8954 62.7729 22.8954Z" fill="black"/>
<path d="M62.773 20.7182C63.992 20.7182 64.9801 19.7054 64.9801 18.4561C64.9801 17.2067 63.992 16.1939 62.773 16.1939C61.5541 16.1939 60.566 17.2067 60.566 18.4561C60.566 19.7054 61.5541 20.7182 62.773 20.7182Z" fill="black"/>
<path d="M71.5396 36.2957C71.5396 37.545 70.5515 38.5578 69.3326 38.5578C68.1136 38.5578 67.1255 37.545 67.1255 36.2957C67.1255 35.0463 68.1136 34.0335 69.3326 34.0335C70.5515 34.0335 71.5396 35.0463 71.5396 36.2957Z" fill="black"/>
<defs>
<linearGradient id="paint0_linear_8_48" x1="22" y1="13" x2="22" y2="39.65" gradientUnits="userSpaceOnUse">
<stop stop-color="#8FC345"/>
<stop offset="1" stop-color="#118F4E"/>
</linearGradient>
</defs>
</svg>
